<svg width="30" height="30" viewBox="0 0 30 30" fill="none" xmlns="http://www.w3.org/2000/svg">
<path d="M22.8728 7.13778C22.7572 7.0219 22.6198 6.92997 22.4686 6.86724C22.3174 6.80451 22.1553 6.77222 21.9916 6.77222C21.8279 6.77222 21.6658 6.80451 21.5146 6.86724C21.3633 6.92997 21.226 7.0219 21.1103 7.13778L14.9978 13.2378L8.88534 7.12528C8.76961 7.00955 8.63222 6.91775 8.48102 6.85512C8.32981 6.79249 8.16775 6.76025 8.00409 6.76025C7.84043 6.76025 7.67836 6.79249 7.52716 6.85512C7.37595 6.91775 7.23857 7.00955 7.12284 7.12528C7.00711 7.24101 6.91531 7.3784 6.85268 7.5296C6.79005 7.68081 6.75781 7.84287 6.75781 8.00653C6.75781 8.17019 6.79005 8.33225 6.85268 8.48346C6.91531 8.63466 7.00711 8.77205 7.12284 8.88778L13.2353 15.0003L7.12284 21.1128C7.00711 21.2285 6.91531 21.3659 6.85268 21.5171C6.79005 21.6683 6.75781 21.8304 6.75781 21.994C6.75781 22.1577 6.79005 22.3198 6.85268 22.471C6.91531 22.6222 7.00711 22.7595 7.12284 22.8753C7.23857 22.991 7.37595 23.0828 7.52716 23.1454C7.67836 23.2081 7.84043 23.2403 8.00409 23.2403C8.16775 23.2403 8.32981 23.2081 8.48102 23.1454C8.63222 23.0828 8.76961 22.991 8.88534 22.8753L14.9978 16.7628L21.1103 22.8753C21.2261 22.991 21.3635 23.0828 21.5147 23.1454C21.6659 23.2081 21.8279 23.2403 21.9916 23.2403C22.1552 23.2403 22.3173 23.2081 22.4685 23.1454C22.6197 23.0828 22.7571 22.991 22.8728 22.8753C22.9886 22.7595 23.0804 22.6222 23.143 22.471C23.2056 22.3198 23.2379 22.1577 23.2379 21.994C23.2379 21.8304 23.2056 21.6683 23.143 21.5171C23.0804 21.3659 22.9886 21.2285 22.8728 21.1128L16.7603 15.0003L22.8728 8.88778C23.3478 8.41278 23.3478 7.61278 22.8728 7.13778Z" fill="white"/>
</svg>
