<svg width="29" height="28" viewBox="0 0 29 28" fill="none" xmlns="http://www.w3.org/2000/svg">
<path d="M17 22C17.5304 22 18.0391 22.2107 18.4142 22.5858C18.7893 22.9609 19 23.4696 19 24C19 24.5304 18.7893 25.0391 18.4142 25.4142C18.0391 25.7893 17.5304 26 17 26C16.4696 26 15.9609 25.7893 15.5858 25.4142C15.2107 25.0391 15 24.5304 15 24C15 22.89 15.89 22 17 22ZM1 6H4.27L5.21 8H20C20.2652 8 20.5196 8.10536 20.7071 8.29289C20.8946 8.48043 21 8.73478 21 9C21 9.17 20.95 9.34 20.88 9.5L17.3 15.97C16.96 16.58 16.3 17 15.55 17H8.1L7.2 18.63L7.17 18.75C7.17 18.8163 7.19634 18.8799 7.24322 18.9268C7.29011 18.9737 7.3537 19 7.42 19H19V21H7C6.46957 21 5.96086 20.7893 5.58579 20.4142C5.21071 20.0391 5 19.5304 5 19C5 18.65 5.09 18.32 5.24 18.04L6.6 15.59L3 8H1V6ZM7 22C7.53043 22 8.03914 22.2107 8.41421 22.5858C8.78929 22.9609 9 23.4696 9 24C9 24.5304 8.78929 25.0391 8.41421 25.4142C8.03914 25.7893 7.53043 26 7 26C6.46957 26 5.96086 25.7893 5.58579 25.4142C5.21071 25.0391 5 24.5304 5 24C5 22.89 5.89 22 7 22ZM16 15L18.78 10H6.14L8.5 15H16Z" fill="#0D0D0D"/>
<rect x="13" width="16" height="16" rx="8" fill="#F05735"/>
<path d="M23.7988 11.6094V12.5H18.2148V11.7207L21.0098 8.60938C21.3535 8.22656 21.6191 7.90234 21.8066 7.63672C21.998 7.36719 22.1309 7.12695 22.2051 6.91602C22.2832 6.70117 22.3223 6.48242 22.3223 6.25977C22.3223 5.97852 22.2637 5.72461 22.1465 5.49805C22.0332 5.26758 21.8652 5.08398 21.6426 4.94727C21.4199 4.81055 21.1504 4.74219 20.834 4.74219C20.4551 4.74219 20.1387 4.81641 19.8848 4.96484C19.6348 5.10938 19.4473 5.3125 19.3223 5.57422C19.1973 5.83594 19.1348 6.13672 19.1348 6.47656H18.0508C18.0508 5.99609 18.1562 5.55664 18.3672 5.1582C18.5781 4.75977 18.8906 4.44336 19.3047 4.20898C19.7188 3.9707 20.2285 3.85156 20.834 3.85156C21.373 3.85156 21.834 3.94727 22.2168 4.13867C22.5996 4.32617 22.8926 4.5918 23.0957 4.93555C23.3027 5.27539 23.4062 5.67383 23.4062 6.13086C23.4062 6.38086 23.3633 6.63477 23.2773 6.89258C23.1953 7.14648 23.0801 7.40039 22.9316 7.6543C22.7871 7.9082 22.6172 8.1582 22.4219 8.4043C22.2305 8.65039 22.0254 8.89258 21.8066 9.13086L19.5215 11.6094H23.7988Z" fill="white"/>
</svg>
